<svg xmlns="http://www.w3.org/2000/svg" height="1024" preserveAspectRatio="none" style="display: block;" version="1.1" viewBox="377.0 339.9 1388.3 1388.3" width="1024">

<path d="M 1262.58 709.333 C 1306.72 752.171 1350.77 797.323 1394.34 840.872 C 1414.66 860.814 1434.8 880.944 1454.75 901.259 C 1465.22 911.766 1477.56 922.657 1486.85 933.983 C 1669.54 1156.62 1549.36 1489.36 1272.09 1555.71 C 1152.06 1584.44 1021.49 1559.69 929.062 1474.93 C 892.607 1441.5 855.54 1401.72 820.318 1366.68 L 710.242 1258.25 C 746.839 1223.17 781.633 1185.69 818.118 1150.44 C 829.104 1139.83 840.114 1129.38 850.856 1118.51 C 883.877 1155.47 928.674 1197.19 964.382 1232.89 C 984.984 1253.72 1005.71 1274.44 1026.55 1295.03 C 1036.52 1305.04 1046.39 1315.22 1056.56 1325.03 C 1092.6 1359.82 1139.84 1376.46 1189.59 1373.16 C 1243.24 1369.36 1293.09 1344.09 1327.87 1303.07 C 1378.42 1244.49 1394.37 1148.32 1350.75 1083.21 C 1324.79 1044.47 1273.59 1000.42 1239.68 965.957 C 1211.34 936.953 1182.72 908.212 1153.85 879.739 C 1144.74 870.756 1131.72 856.385 1122.89 848.799 C 1139.35 829.825 1159.87 810.686 1177.84 792.831 C 1205.81 764.721 1234.06 736.887 1262.58 709.333 z" fill="rgb(5,150,105)" transform="translate(0,0)"></path>
<path d="M 617.502 484.397 C 630.907 483.581 644.361 484.42 657.561 486.895 C 709.717 496.6 757.839 537.181 774.389 588.455 C 783.423 616.442 788.301 647.018 796.189 675.55 C 805.679 709.88 812.692 745.262 821.099 779.867 C 823.95 792.755 836.027 827.886 834.048 838.482 C 828.77 866.737 791.922 850.024 774.444 844.017 L 724.389 826.82 C 696.622 817.671 668.925 808.313 641.299 798.746 C 606.602 786.937 560.015 775.343 532.132 752.214 C 499.9 725.477 480.27 689.721 476.56 647.828 C 472.762 609.127 484.546 570.509 509.303 540.523 C 536.226 507.866 575.299 487.597 617.502 484.397 z" fill="rgb(255,255,255)" transform="translate(0,0)"></path>
<path d="M 626.009 567.227 C 662.94 566.102 693.893 594.919 695.407 631.836 C 696.921 668.753 668.432 700.007 631.534 701.911 C 607.316 703.16 584.294 691.303 571.247 670.863 C 558.2 650.422 557.138 624.548 568.468 603.108 C 579.797 581.667 601.771 567.965 626.009 567.227 z" fill="rgb(11,14,20)" transform="translate(0,0)"></path>
<path d="M 1045.91 772.475 C 1031.89 759.639 1018.96 745.81 1005.51 732.497 C 975.747 703.344 951.239 684.652 949.139 640.185 C 945.819 569.902 1011.32 520.638 1077.97 541.021 C 1108.37 550.316 1120.51 565.434 1142.21 587.565 C 1156.78 602.415 1172.07 618.291 1187.14 632.546 C 1212.45 658.03 1237.06 684.031 1262.58 709.333 C 1234.06 736.887 1205.81 764.721 1177.84 792.831 C 1159.87 810.686 1139.35 829.825 1122.89 848.799 C 1096.4 822.918 1071.86 799.148 1045.91 772.475 z" fill="rgb(5,150,105)" transform="translate(0,0)"></path>
<path d="M 1187.14 632.546 C 1212.45 658.03 1237.06 684.031 1262.58 709.333 C 1234.06 736.887 1205.81 764.721 1177.84 792.831 C 1159.87 810.686 1139.35 829.825 1122.89 848.799 C 1096.4 822.918 1071.86 799.148 1045.91 772.475 C 1059.07 760.63 1070.64 748.525 1083.22 736.205 L 1187.14 632.546 z" fill="rgb(255,255,255)" transform="translate(0,0)"></path>
<path d="M 634.07 1182.73 C 617.282 1165.73 600.263 1148.96 583.019 1132.43 C 556.702 1107.2 539.613 1087.16 538.58 1048.46 C 536.864 993.229 580.954 946.736 636.439 946.446 C 682.58 946.205 699.78 968.014 729.38 997.572 L 774.257 1041.95 L 850.856 1118.51 C 840.114 1129.38 829.104 1139.83 818.118 1150.44 C 781.633 1185.69 746.839 1223.17 710.242 1258.25 L 634.07 1182.73 z" fill="rgb(5,150,105)" transform="translate(0,0)"></path>
<path d="M 634.07 1182.73 C 645.016 1170.03 669.145 1147.34 681.532 1135.03 C 712.611 1104.17 743.52 1073.15 774.257 1041.95 L 850.856 1118.51 C 840.114 1129.38 829.104 1139.83 818.118 1150.44 C 781.633 1185.69 746.839 1223.17 710.242 1258.25 L 634.07 1182.73 z" fill="rgb(255,255,255)" transform="translate(0,0)"></path>
<metadata><recraft-signature>{"signed_by": "recraft", "signature_b64": "N5lYA2QfmxtO8b1oTHEeUcsjXacaZRqUTJ0AmJBJh/Zls8YlpBlNU6gH0VuP5zIB/eMQATb/iagOGZ8w80wKBQ==", "signing_algo": "Ed25519", "generation_timestamp": 1781622313, "identifier": "8d9ff7ef-f650-44fc-833a-544d48cc41ec"}</recraft-signature></metadata></svg>